<svg width="22" height="18" viewBox="0 0 22 18" fill="none" xmlns="http://www.w3.org/2000/svg">
<path d="M17.3082 8.25H5.10864C4.14612 8.25 3.36584 8.92157 3.36584 9.75V15C3.36584 15.8284 4.14612 16.5 5.10864 16.5H17.3082C18.2707 16.5 19.051 15.8284 19.051 15V9.75C19.051 8.92157 18.2707 8.25 17.3082 8.25Z" stroke="#F55139" stroke-width="1.5" stroke-linecap="round" stroke-linejoin="round"/>
<path d="M6.85144 8.25V5.25C6.85144 4.25544 7.31048 3.30161 8.12757 2.59835C8.94466 1.89509 10.0529 1.5 11.2084 1.5C12.364 1.5 13.4722 1.89509 14.2893 2.59835C15.1064 3.30161 15.5654 4.25544 15.5654 5.25V8.25" stroke="#F55139" stroke-width="1.5" stroke-linecap="round" stroke-linejoin="round"/>
</svg>
