<svg width="22" height="18" viewBox="0 0 22 18" fill="none" xmlns="http://www.w3.org/2000/svg">
<path d="M19.9225 12.69V14.94C19.9235 15.1488 19.8738 15.3556 19.7765 15.547C19.6793 15.7383 19.5367 15.9101 19.3579 16.0513C19.1791 16.1926 18.9679 16.3001 18.738 16.367C18.5081 16.4339 18.2645 16.4588 18.0228 16.44C15.3414 16.1892 12.7657 15.4006 10.5027 14.1375C8.39724 12.9859 6.61219 11.4496 5.2743 9.63745C3.80162 7.68085 2.88514 5.4532 2.59911 3.13495C2.57734 2.92755 2.60598 2.71852 2.6832 2.52117C2.76043 2.32382 2.88456 2.14247 3.04768 1.98867C3.2108 1.83487 3.40934 1.71198 3.63067 1.62784C3.85199 1.5437 4.09124 1.50015 4.33319 1.49995H6.94738C7.37028 1.49637 7.78026 1.62526 8.10091 1.8626C8.42155 2.09994 8.63099 2.42954 8.69018 2.78995C8.80052 3.51 9.00514 4.217 9.30016 4.89745C9.4174 5.16589 9.44277 5.45764 9.37327 5.73811C9.30377 6.01858 9.14231 6.27603 8.90803 6.47995L7.80135 7.43245C9.04184 9.31011 10.8482 10.8648 13.0297 11.9325L14.1364 10.98C14.3733 10.7783 14.6725 10.6393 14.9983 10.5795C15.3242 10.5197 15.6632 10.5415 15.9751 10.6425C16.7657 10.8964 17.5871 11.0725 18.4237 11.1675C18.847 11.2188 19.2336 11.4024 19.5099 11.6831C19.7863 11.9638 19.9331 12.3221 19.9225 12.69Z" stroke="#F55139" stroke-width="1.5" stroke-linecap="round" stroke-linejoin="round"/>
</svg>
